<?xml version="1.0" standalone="yes"?>

<svg version="1.1" viewBox="0.0 0.0 256.0 256.0" fill="none" stroke="none" stroke-linecap="square" stroke-miterlimit="10" xmlns="http://www.w3.org/2000/svg" xmlns:xlink="http://www.w3.org/1999/xlink"><clipPath id="p.0"><path d="m0 0l256.0 0l0 256.0l-256.0 0l0 -256.0z" clip-rule="nonzero"></path></clipPath><g clip-path="url(#p.0)"><path fill="#000000" fill-opacity="0.0" d="m0 0l256.0 0l0 256.0l-256.0 0z" fill-rule="nonzero"></path><path fill="#000000" fill-opacity="0.0" d="m0 0l250.3307 0l0 290.04724l-250.3307 0z" fill-rule="nonzero"></path><path fill="#f1c232" d="m207.1966 62.09375q-0.78125 16.40625 -0.78125 27.34375q0 10.9375 0.78125 29.6875l-103.12499 0q0.78125 -17.96875 0.78125 -28.90625q0 -11.71875 -0.78125 -28.125l103.12499 0zm-46.875 57.8125q1.5625 6.25 5.46875 20.3125l26.5625 0q14.0625 0 25.0 -0.78125l0 13.28125q-10.9375 -0.78125 -24.21875 -0.78125l-43.75 0q-1.5625 10.9375 -2.34375 17.96875l55.46875 0q-0.78125 7.8125 -1.953125 23.046875q-1.171875 15.234375 -1.953125 23.046875q-0.78125 7.8125 -8.203125 10.9375q-7.421875 3.125 -25.390625 6.25q-3.125 -14.84375 -7.8125 -18.75q20.3125 2.34375 23.4375 0q3.125 -2.34375 4.296875 -5.078125q1.171875 -2.734375 2.734375 -28.515625l-42.1875 0q-7.03125 17.1875 -15.234375 27.734375q-8.203117 10.546875 -26.953117 23.828125q-5.46875 -7.03125 -15.625 -14.0625q12.5 -3.90625 21.875 -10.546875q9.375 -6.640625 14.0625 -15.625q4.6874924 -8.984375 7.4218674 -19.140625q2.734375 -10.15625 2.734375 -21.09375l-10.937492 0q-13.28125 0 -26.5625 0.78125l0 -13.28125q13.28125 0.78125 27.34375 0.78125l27.343742 0q-1.5625 -8.59375 -5.46875 -16.40625q8.59375 -1.5625 14.84375 -3.90625zm-85.15624 -66.40625q-1.5625 14.0625 -1.5625 26.5625l0 123.4375q0 16.40625 1.5625 32.8125l-15.625 0q0.78125 -16.40625 0.78125 -32.8125l0 -121.09375q0 -13.28125 -0.78125 -28.90625l15.625 0zm-21.875 43.75q-3.125 33.59375 -6.25 53.90625q-7.8125 -0.78125 -14.0625 -1.5625q3.125 -15.625 6.25 -53.90625q7.8125 1.5625 14.0625 1.5625zm82.03124 10.9375l0 -35.15625l-17.187492 0l0 35.15625l17.187492 0zm30.46875 0l0 -35.15625l-17.1875 0l0 35.15625l17.1875 0zm28.125 0l0 -35.15625l-14.84375 0l0 35.15625l14.84375 0zm-104.68749 -16.40625q7.8125 17.96875 10.9375 27.34375q-7.03125 2.34375 -13.28125 6.25q-3.90625 -14.84375 -9.375 -28.125q5.46875 -2.34375 11.71875 -5.46875z" fill-rule="nonzero"></path></g></svg>

