<?xml version="1.0" standalone="yes"?>

<svg version="1.1" viewBox="0.0 0.0 105.41469816272966 110.9002624671916" fill="none" stroke="none" stroke-linecap="square" stroke-miterlimit="10" xmlns="http://www.w3.org/2000/svg" xmlns:xlink="http://www.w3.org/1999/xlink"><clipPath id="p.0"><path d="m0 0l105.414696 0l0 110.90026l-105.414696 0l0 -110.90026z" clip-rule="nonzero"></path></clipPath><g clip-path="url(#p.0)"><path fill="#000000" fill-opacity="0.0" d="m0 0l105.414696 0l0 110.90026l-105.414696 0z" fill-rule="nonzero"></path><path fill="#000000" fill-opacity="0.0" d="m0 0l99.37008 0l0 116.8189l-99.37008 0z" fill-rule="nonzero"></path><path fill="#f1c232" d="m82.49754 24.237495q-0.3125 6.5625 -0.3125 10.9375q0 4.375 0.3125 11.875l-41.250004 0q0.3125 -7.1875 0.3125 -11.5625q0 -4.6875 -0.3125 -11.25l41.250004 0zm-18.750004 23.125q0.6250038 2.5 2.1875038 8.125l10.625 0q5.625 0 10.0 -0.3125l0 5.3125q-4.375 -0.3125 -9.6875 -0.3125l-17.500004 0q-0.625 4.375 -0.9375 7.1875l22.187504 0q-0.3125 3.125 -0.78125 9.21875q-0.46875 6.09375 -0.78125 9.21875q-0.3125 3.125 -3.28125 4.375q-2.96875 1.25 -10.15625 2.5q-1.25 -5.9375 -3.1250038 -7.5q8.125004 0.9375 9.375004 0q1.25 -0.9375 1.71875 -2.03125q0.46875 -1.09375 1.09375 -11.40625l-16.875004 0q-2.8125 6.875 -6.09375 11.09375q-3.28125 4.21875 -10.78125 9.53125q-2.1875 -2.8125 -6.25 -5.625q5.0 -1.5625 8.75 -4.21875q3.75 -2.65625 5.625 -6.25q1.875 -3.59375 2.96875 -7.65625q1.09375 -4.0625 1.09375 -8.4375l-4.375 0q-5.3125 0 -10.625 0.3125l0 -5.3125q5.3125 0.3125 10.9375 0.3125l10.9375 0q-0.625 -3.4375 -2.1875 -6.5625q3.4375 -0.625 5.9375 -1.5625zm-34.0625 -26.5625q-0.625 5.625 -0.625 10.625l0 49.375q0 6.5625 0.625 13.125l-6.25 0q0.3125 -6.5625 0.3125 -13.125l0 -48.4375q0 -5.3125 -0.3125 -11.5625l6.25 0zm-8.75 17.5q-1.25 13.4375 -2.5 21.5625q-3.125 -0.3125 -5.625 -0.625q1.25 -6.25 2.5 -21.5625q3.125 0.625 5.625 0.625zm32.8125 4.375l0 -14.0625l-6.875 0l0 14.0625l6.875 0zm12.187504 0l0 -14.0625l-6.875004 0l0 14.0625l6.875004 0zm11.25 0l0 -14.0625l-5.9375 0l0 14.0625l5.9375 0zm-41.875004 -6.5625q3.125 7.1875 4.375 10.9375q-2.8125 0.9375 -5.3125 2.5q-1.5625 -5.9375 -3.75 -11.25q2.1875 -0.9375 4.6875 -2.1875z" fill-rule="nonzero"></path></g></svg>

